<mxfile host="app.diagrams.net" modified="2023-12-19T08:28:41.557Z" agent="Mozilla/5.0 (Windows NT 10.0; Win64; x64) AppleWebKit/537.36 (KHTML, like Gecko) Chrome/120.0.0.0 Safari/537.36" version="22.1.11" etag="IA26Eq8QFwG5ZSPPnb4f" type="github">
  <diagram name="Page-1" id="C5GWhT67dM7pt69H-9Gb">
    <mxGraphModel>
      <root>
        <mxCell id="0" />
        <mxCell id="1" parent="0" />
      </root>
    </mxGraphModel>
  </diagram>
</mxfile>
